<svg width="155" height="130" fill="none" xmlns="http://www.w3.org/2000/svg"><path d="M.5 80.37V78.6c1.44-2 3.28-4.623 5.52-7.87 2.24-3.246 4.953-7.383 8.14-12.41.36-.59.74-1.18 1.14-1.76.4-.58.84-1.14 1.33-1.71L6.81 55a4.201 4.201 0 00-3.4 1.58 8 8 0 00-1.14 4.81H.96l.23-8h19.09v1.34L6.5 75.75c-.57.82-1 1.47-1.43 2-.37.451-.778.87-1.22 1.25l9.35-.16a6.24 6.24 0 004.3-1.61 6 6 0 001.72-4.75h1.28l-.23 7.89H.5zm29.29 0V79.1a2.398 2.398 0 001.77-.62c.45-.486.79-1.062 1-1.69l.94-2.5 8-21.59h.93l8.58 21.9c.213.54.443 1.23.69 2.07.237.695.343 1.427.31 2.16l1.31-.08 1.31-.07v1.69h-8.87V79.1a2.44 2.44 0 001.93-.65 2 2 0 00.35-1.45 7.078 7.078 0 00-.39-1.54l-1.35-3.63-10 .23-1.35 4.11c-.18.62-.34 1.11-.48 1.47-.14.36-.3.75-.48 1.19l1.51-.08 1.48-.07v1.69h-7.19zm7.08-10h8.89l-2.73-7.35c-.28-.8-.57-1.58-.86-2.37-.29-.79-.59-1.57-.87-2.36h-.08c-.25.71-.52 1.43-.79 2.15l-.82 2.2-2.74 7.73zM76.5 81a14 14 0 01-6.82-1.62 11.37 11.37 0 01-4.61-4.66 14.82 14.82 0 01-1.66-7.23c0-1.812.28-3.613.83-5.34a14.631 14.631 0 012.5-4.71 12.21 12.21 0 014.2-3.37 13.079 13.079 0 015.87-1.25c.942 0 1.882.084 2.81.25.935.167 1.855.41 2.75.73.836.299 1.64.68 2.4 1.14l-.15-1.85h2.12v8.81h-1.37a8 8 0 00-1.29-4.09 7.489 7.489 0 00-2.94-2.56 9.12 9.12 0 00-4-.89 8.43 8.43 0 00-3.83.9 10.07 10.07 0 00-3.15 2.55 12.34 12.34 0 00-2.14 3.86 15.132 15.132 0 00-.77 4.93 15.39 15.39 0 001.25 6.46 10.76 10.76 0 003.64 4.46 9.16 9.16 0 005.36 1.62c.732.011 1.465-.035 2.19-.14a11.93 11.93 0 004.41-1.74v-8.48l-1.35.08-1.34.08v-1.69h8.69v1.26a2.29 2.29 0 00-1.65.56 3 3 0 00-.81 1.35 7.23 7.23 0 00-.27 1.58v7h-1a8.297 8.297 0 00-1.69.24 15.66 15.66 0 00-2.46.77c-.898.33-1.826.574-2.77.73-.974.171-1.961.258-2.95.26zm37.62-10.6a4.692 4.692 0 00-.46-2.42 2.01 2.01 0 00-1.46-.89c-.896-.115-1.8-.145-2.7-.09l-2.81.12V77.7c-.005.415-.035.83-.09 1.24l7.35-.12a7.73 7.73 0 002.92-.56 3.804 3.804 0 001.93-1.83 7.728 7.728 0 00.69-3.58h1.31l-.23 7.51h-19.84V79.1a2.891 2.891 0 002-.67 2.62 2.62 0 00.6-1.66V56.26c0-.48 0-.91.08-1.29l-1.39.07-1.38.08v-1.69h18.51l.19 6.73h-1.27a6.897 6.897 0 00-.69-3.44 3.432 3.432 0 00-1.87-1.58 7.541 7.541 0 00-2.63-.37l-3.31.08a3.458 3.458 0 00-2 .54 2.208 2.208 0 00-.75 1.48c-.103.85-.15 1.705-.14 2.56v6.16h7.24l-.27-3.31h1.69v8.12h-1.22zm18.25 9.97V79.1a2.89 2.89 0 002-.67 2.559 2.559 0 00.59-1.66c0-.7.06-1.51.06-2.4V56.26c0-.48.05-.91.08-1.29l-1.39.07-1.38.08v-1.69l4.36-.08h4.45a18.526 18.526 0 016 .86 6.878 6.878 0 013.37 2.35 6.199 6.199 0 011.08 3.68 8.009 8.009 0 01-.56 3.06 6.558 6.558 0 01-2.15 2.79A10.85 10.85 0 01144.5 68c.527.378.984.845 1.35 1.38.38.57.82 1.22 1.31 2l2.62 4.11a22.64 22.64 0 001.27 1.87c.381.527.864.972 1.42 1.31a3.85 3.85 0 002 .48v1.27h-4.85a14.281 14.281 0 01-1.87-2c-.5-.67-1-1.43-1.55-2.27L143.57 72c-.34-.54-.72-1.16-1.14-1.87a7.864 7.864 0 00-1.44-1.79h-2.62v9.26a8.176 8.176 0 01-.1 1.25l.93-.06c.31 0 .61 0 .92-.06.31-.06.62 0 .93 0v1.69l-8.68-.05zm8.39-13.47a11.403 11.403 0 003.71-.69 5.217 5.217 0 002.52-2 6.122 6.122 0 00.93-3.54 7.383 7.383 0 00-.41-2.56 4.337 4.337 0 00-1.25-1.83 5.524 5.524 0 00-2.15-1.09 11.296 11.296 0 00-3.08-.37 2.722 2.722 0 00-2 .58 2.425 2.425 0 00-.61 1.6c-.04.667-.06 1.467-.06 2.4v7.39l1.17.08c.39.05.79.05 1.23.03zM17.44 48.67l-1.06-.37 1.89-5.36 1 .35-1.83 5.38zm8.38-8.89l-.44-.29a1.15 1.15 0 00.23-.85 1 1 0 00-.43-.59c-.23-.18-.5-.37-.81-.58l-5.73-3.86-.51-.36-.42-.33-.3.5-.29.49-.62-.39 2-3 .43.3a1.091 1.091 0 00-.23.83 1 1 0 00.43.6c.22.18.5.37.82.58l2.2 1.49 3.2-4.75-2.73-1.87-.51-.36-.42-.34-.3.49-.29.5-.6-.37 2-3 .43.3a.93.93 0 00.2 1.43c.23.17.5.37.82.58l5.64 3.8.61.43c.17.12.3.23.41.32l.29-.49.3-.5.58.39-2 3-.44-.3a1.13 1.13 0 00.23-.84 1 1 0 00-.43-.59c-.23-.18-.5-.37-.81-.58l-2.42-1.63-3.15 4.78 2.85 1.93.62.42c.17.12.3.23.41.32l.29-.49.3-.5.58.4-1.99 2.98zM32 30.7l-.37-.37a1 1 0 00.35-.7 2 2 0 00-.2-.8l-.45-1-4-8.7.27-.27 8.94 4c.22.1.49.23.81.41.273.131.518.315.72.54.13-.13.25-.27.37-.4l.36-.41.5.5-2.58 2.5-.37-.37c.28-.3.41-.55.38-.76a.781.781 0 00-.33-.53 2.601 2.601 0 00-.56-.35l-1.46-.67-2.88 3 .8 1.68c.13.24.22.43.29.58l.2.49.43-.47.42-.45.49.5L32 30.7zm-.82-5l2.63-2.6-3-1.38-1-.44-.94-.45c.14.29.27.58.4.87.13.29.26.59.4.89l1.51 3.11zm15.7-6.97l-10.06-3.62-.44-.11-.44-.16 3.82 5.68.44.67c.15.22.29.45.41.67l.46-.34.47-.35.39.59-2.43 1.58-.3-.44a1 1 0 00.48-.58 1 1 0 000-.58 2.662 2.662 0 00-.25-.48l-4.24-6.42-.3-.46c-.1-.15-.2-.29-.29-.44l-.42.32-.44.33-.46-.59 1.59-1 9.44 3.38.64.22.64.23-4-6.11c-.12-.18-.23-.35-.33-.52l-.27-.47-.49.27-.47.34-.38-.59 2.45-1.62.29.44a1.09 1.09 0 00-.53.67c-.024.25.04.501.18.71.15.25.33.53.55.85l4.91 7.5-.62.43zm2.15-2.18a1.19 1.19 0 00.67-.55 1.08 1.08 0 000-.73c-.09-.28-.21-.59-.34-.94l-2.54-6.45c-.08-.2-.15-.4-.21-.58l-.17-.51-.52.21-.53.24-.25-.66 3.51-1.39a9.579 9.579 0 012.58-.65 5.79 5.79 0 012.3.21 4.51 4.51 0 011.9 1.15 5.99 5.99 0 011.35 2.16c.264.669.403 1.381.41 2.1a4.997 4.997 0 01-.42 2.08 5.53 5.53 0 01-1.33 1.85 7.27 7.27 0 01-2.3 1.39L49.22 17l-.19-.45zm1.82-2.18c.106.274.196.504.27.69.06.19.11.36.14.49l.75-.26.57-.22.29-.11a4.44 4.44 0 001.61-1c.44-.427.782-.946 1-1.52a4.818 4.818 0 00.29-1.83 5.848 5.848 0 00-.42-2 5.7 5.7 0 00-1.48-2.25 3.89 3.89 0 00-2.2-1 6.2 6.2 0 00-2.92.48 1.14 1.14 0 00-.68.53.994.994 0 000 .72c.09.27.2.59.34.94l2.44 6.34zM71.88 3.75a3.61 3.61 0 00-1.26-2.23 3.24 3.24 0 00-2.35-.61 3.47 3.47 0 00-1.55.51 3.76 3.76 0 00-1.22 1.15 4.888 4.888 0 00-.73 1.69 6.808 6.808 0 00-.12 2.15A5.87 5.87 0 0065.5 9a4.47 4.47 0 001.71 1.64 3.91 3.91 0 002.21.43 4.93 4.93 0 002-.66 4.26 4.26 0 001.52-1.52l.44.3a5.45 5.45 0 01-1.34 1.58 5 5 0 01-1.52.85c-.463.16-.943.267-1.43.32a5.48 5.48 0 01-2.23-.23 4.999 4.999 0 01-1.83-1A5.539 5.539 0 0163.73 9a6.448 6.448 0 01-.6-2.19 7.27 7.27 0 01.14-2.23 5.98 5.98 0 01.84-2A5.12 5.12 0 0165.71 1a5.51 5.51 0 012.38-.73 5.77 5.77 0 011.72.08c.557.11 1.093.305 1.59.58l-.16-.85.86-.08.4 3.7-.62.05zm2.55 7.59v-.52c.301.041.607-.03.86-.2a1.2 1.2 0 00.31-.67c0-.29.08-.62.11-1l.62-6.88c0-.22.05-.42.08-.62s.09-.36.09-.52h-1.16l.16-.74 1.81.13c.61 0 1.22.11 1.84.19a7.8 7.8 0 012.46.58 2.78 2.78 0 011.3 1.1 2.53 2.53 0 01.31 1.56A3.252 3.252 0 0182.83 5a2.82 2.82 0 01-1 1.07 4.53 4.53 0 01-1.93.6c.206.174.379.384.51.62l.47.86.93 1.85c.15.3.3.57.45.82.138.231.322.432.54.59.238.168.519.265.81.28v.52l-2-.18a4.993 4.993 0 01-.7-.9c-.18-.29-.37-.63-.56-1l-.91-1.8c-.12-.23-.25-.51-.4-.81a3.37 3.37 0 00-.53-.8h-.54l-.55-.07-.28 3.09c0 .29 0 .54-.07.74-.07.2-.06.38-.09.52h1.15l-.06.7-3.64-.36zm4-5.26A4.86 4.86 0 0080 5.94a2.23 2.23 0 001.12-.72 2.6 2.6 0 00.51-1.43c.02-.365-.024-.73-.13-1.08a1.72 1.72 0 00-.45-.8 2.39 2.39 0 00-.85-.54 4.74 4.74 0 00-1.26-.26 1.08 1.08 0 00-.84.16 1 1 0 00-.32.64c0 .28-.08.61-.11 1L77.43 6l.48.08c.166.01.333.01.5 0h.02zm5.3 6.12l.15-.51a1 1 0 00.78 0c.236-.145.44-.336.6-.56l.67-.89 5.66-7.71.37.11.9 9.73v.91c.015.305-.026.61-.12.9l.53.12.53.12-.2.68-3.52-1 .15-.51a1 1 0 00.84 0 .791.791 0 00.31-.54 3.01 3.01 0 000-.66l-.12-1.6-4-1.06-1 1.49c-.11.18-.23.353-.36.52l-.33.42.61.15.6.14-.19.68-2.86-.93zm4-3.17l3.55 1-.24-3.25c0-.35 0-.7-.07-1-.07-.3 0-.69-.07-1l-.57.77-.58.78-2.02 2.7zm6.1 6.25l.23-.47c.267.141.576.18.87.11a1.09 1.09 0 00.57-.52c.14-.25.3-.55.46-.89l3-6.23c.1-.19.19-.37.29-.54.1-.17.18-.33.26-.47l-.54-.22-.53-.22.31-.64 6.69 3.22-1.21 2.59-.47-.23a2.67 2.67 0 00.34-1.42 1.45 1.45 0 00-.43-.94c-.27-.26-.585-.47-.93-.62l-1.07-.48a1.075 1.075 0 00-.85-.1 1.279 1.279 0 00-.54.52c-.14.25-.29.54-.45.88l-1.2 2.48 2.5 1.22.51-1.3.63.3-1.46 3.05-.46-.23c.173-.305.262-.65.26-1a.794.794 0 00-.4-.59 5.202 5.202 0 00-1-.5l-.89-.38-1.45 3-.33.67c-.1.18-.19.33-.27.45l.51.21.5.22.49.22-.3.63-3.64-1.78zm18.83 2.1c.308-.43.56-.897.75-1.39a1.669 1.669 0 000-1.12 2.158 2.158 0 00-.87-1l-1.04-.76-5 7.11-.44.6a3.117 3.117 0 01-.33.4l.56.36.56.36-.4.57-3.07-2.17.3-.43a1.087 1.087 0 00.84.24c.242-.074.453-.225.6-.43.18-.23.38-.49.59-.79l4.69-6.61-1.35-.94a1.532 1.532 0 00-1.55-.27c-.64.34-1.176.848-1.55 1.47l-.49-.34 2-2.71 7.62 5.39-1.87 2.81-.55-.35zm3.38 8.33a1.93 1.93 0 00.58-.85.81.81 0 00-.002-.363.804.804 0 00-.158-.327 5.819 5.819 0 00-.76-.81l-.85-.79-2.61 2.57-.53.51a4.187 4.187 0 01-.39.33l2.18 2.14a3.51 3.51 0 001 .71 1.6 1.6 0 001.1 0 3.14 3.14 0 001.26-.84l.39.39-2.29 2.12-5.8-5.88.38-.37c.197.23.478.375.78.4.25-.022.484-.132.66-.31.22-.19.47-.42.73-.68l4.92-4.86c.147-.147.297-.287.45-.42.15-.13.28-.25.41-.35l-.43-.39-.43-.39.5-.49 5.41 5.48-1.94 2-.37-.38c.374-.325.657-.742.82-1.21a1.45 1.45 0 00-.08-1 3.155 3.155 0 00-.66-.89l-1-.95a1.379 1.379 0 00-.76-.45 1 1 0 00-.66.21 8.44 8.44 0 00-.79.71l-1.82 1.8 2.1 2.15.9-1.05.49.5-2.39 2.36-.34-.33zm.21 5.41c.153.261.4.454.69.54a1.1 1.1 0 00.71-.18c.25-.15.54-.32.85-.53l5.75-3.83.53-.33.46-.27-.35-.46-.34-.46.58-.39 2.11 3.14a9.937 9.937 0 011.18 2.38c.25.74.349 1.522.29 2.3a4.705 4.705 0 01-.72 2.09 6.112 6.112 0 01-1.83 1.78 5.836 5.836 0 01-2 .85 5.001 5.001 0 01-2.12 0 5.5 5.5 0 01-2.09-.91 7.208 7.208 0 01-1.84-1.95l-2.33-3.51.47-.26zm2.51 1.33l-.62.4-.44.25.41.67.33.51.18.26a4.276 4.276 0 001.36 1.35 4.114 4.114 0 001.68.61 4.87 4.87 0 001.85-.11 5.912 5.912 0 001.84-.83 5.81 5.81 0 001.88-1.92 3.83 3.83 0 00.51-2.36 6.052 6.052 0 00-1.09-2.75 1.116 1.116 0 00-.66-.55 1 1 0 00-.7.15l-.85.54-5.68 3.78zm9.18 10.95l1.05-.37 1.89 5.36-1 .35-1.94-5.34zM18.15 87.12l1-.46 2.35 5.18-1 .44-2.35-5.16zm5.76 18.95c.52-1 1-2.09 1.55-3.13s1-2.1 1.58-3.15c.17-.33.34-.66.52-1 .18-.34.35-.66.54-1l.55-1-.28.22-.27.22-1.09.85-1.37 1.06c-.49.37-1 .75-1.45 1.14l-1.35 1.08c-.19.14-.38.28-.56.43l-.53.39.4.44c.14.14.27.29.41.44l-.54.45-1.95-2.35.41-.34c.155.209.378.358.63.42a.87.87 0 00.6-.11c.212-.116.412-.249.6-.4l5.82-4.42.51-.39.49-.38c-.13-.14-.26-.28-.38-.43l-.39-.43.53-.44 1.61 1.92-3.14 6.17c-.15.31-.31.62-.47.93l-.48.93c-.16.31-.31.63-.48 1l1.06-.34 1.05-.35c1.2-.39 2.42-.77 3.65-1.13 1.23-.36 2.49-.75 3.77-1.18l1.48 1.81-.4.33a1.134 1.134 0 00-.54-.41 1.002 1.002 0 00-.66.07c-.313.158-.6.364-.85.61l-5.34 5c-.133.127-.263.247-.39.36l-.36.3c.13.14.27.28.4.43l.39.44-.55.45-2.28-2.76.4-.34a1.1 1.1 0 00.66.41.993.993 0 00.68-.18 5.37 5.37 0 00.8-.63l3.87-3.62.37-.35.37-.35.38-.35-.25.07-.28.1-9.15 2.9-.3-.41zm6.32 6.75l.33-.41a.994.994 0 00.73.25 1.99 1.99 0 00.77-.29l.95-.58 8.12-5.05.31.24-2.8 9.37c-.07.23-.17.51-.3.86a2.35 2.35 0 01-.45.78l.45.31.45.31-.44.56-2.85-2.26.33-.41a1 1 0 00.37.224c.139.046.285.062.43.046a.736.736 0 00.48-.39 2.59 2.59 0 00.27-.6l.49-1.53-3.37-2.49-1.5 1c-.21.15-.39.27-.53.35l-.46.27.52.37.5.35-.43.56-2.37-1.84zm4.87-1.45l2.91 2.27 1-3.1c.11-.34.22-.67.32-1 .1-.33.21-.66.32-1l-.81.51-.83.5-2.91 1.82zm14.16 4.85a3.88 3.88 0 00.37-1.45 2.801 2.801 0 00-.28-1.43 2.62 2.62 0 00-1.16-1.12 2.005 2.005 0 00-1.61-.23 1.822 1.822 0 00-1.08.91 1.64 1.64 0 00-.2 1.17c.095.42.265.82.5 1.18.25.4.53.8.83 1.2.3.4.53.72.79 1.1.254.358.466.743.63 1.15.167.382.252.794.25 1.21a2.77 2.77 0 01-.37 1.3 2.836 2.836 0 01-1.13 1.17 3 3 0 01-1.63.35 4.712 4.712 0 01-2-.62 6.149 6.149 0 01-1.21-.89 4.733 4.733 0 01-.91-1.18l-.25.64-.73-.4 1.53-3 .55.3a2.822 2.822 0 00-.16 2.34c.31.722.861 1.313 1.56 1.67a2.73 2.73 0 001.12.34 1.89 1.89 0 001.06-.2 1.84 1.84 0 00.8-.81 1.92 1.92 0 00.23-1.24 3.36 3.36 0 00-.48-1.2c-.24-.4-.52-.8-.82-1.21-.3-.41-.53-.71-.78-1.07a6.259 6.259 0 01-.62-1.13 3.264 3.264 0 01-.25-1.2c.01-.455.138-.899.37-1.29.148-.265.333-.508.55-.72a2.584 2.584 0 012.1-.73c.545.061 1.07.239 1.54.52.405.221.784.486 1.13.79.394.349.714.774.94 1.25l.27-.64.71.39-1.67 3.1-.49-.32zm10.34 3.85c.177-.5.285-1.021.32-1.55a1.649 1.649 0 00-.28-1.08 2.119 2.119 0 00-1.11-.69l-1.29-.43-2.8 8.26c-.09.27-.17.51-.24.7a4.01 4.01 0 01-.21.48l.64.18.64.19-.22.66-3.55-1.2.17-.5a1.102 1.102 0 00.87 0 1 1 0 00.45-.58c.11-.27.22-.58.34-.93l2.6-7.68-1.56-.51a1.58 1.58 0 00-1.57.18 4.167 4.167 0 00-1.06 1.86l-.56-.19 1.17-3.17 8.84 3-1 3.23-.59-.23zm6.7 4.86a2.06 2.06 0 000-1 .814.814 0 00-.55-.45 5.598 5.598 0 00-1.09-.19l-1.16-.15-.53 3.62c0 .29-.08.53-.12.73a3.5 3.5 0 01-.11.5l3 .4c.41.058.828.038 1.23-.06.368-.096.69-.32.91-.63.278-.43.45-.92.5-1.43l.54.08-.55 3.07-8.17-1.2.08-.52c.297.059.605.002.86-.16a.997.997 0 00.34-.64c.06-.29.12-.62.17-1l1-6.84c0-.21.06-.41.1-.61.04-.2.08-.36.11-.52h-.57l-.58-.06.11-.69 7.61 1.12-.33 2.7-.52-.08a2.8 2.8 0 00-.08-1.42 1.4 1.4 0 00-.67-.76 3.145 3.145 0 00-1.06-.31l-1.37-.17a1.492 1.492 0 00-.87.1.92.92 0 00-.4.57c-.07.26-.14.61-.21 1l-.37 2.53 3 .46.09-1.38.7.1-.52 3.36-.52-.07zm5.01 4.66v-.53c.3.006.593-.101.82-.3.155-.199.237-.447.23-.7v-1l-.2-6.91V119h-1.15v-.7l1.81-.08h1.85a7.829 7.829 0 012.52.29c.56.156 1.057.485 1.42.94.322.437.493.967.49 1.51.019.435-.046.869-.19 1.28a2.778 2.778 0 01-.87 1.19 4.445 4.445 0 01-1.84.81c.224.156.42.349.58.57.16.23.35.49.56.8l1.16 1.73c.19.28.37.53.55.76.166.213.373.39.61.52.254.138.542.2.83.18v.53l-2 .06a5.982 5.982 0 01-.79-.81c-.22-.28-.45-.58-.68-.93L75.86 126c-.14-.22-.31-.47-.49-.76a3.45 3.45 0 00-.62-.73c-.18.011-.36.011-.54 0h-.55l.09 3.1v.75a3.76 3.76 0 010 .52h1.15v.71h-3.59zm3.32-5.7a4.932 4.932 0 001.54-.33 2.143 2.143 0 001-.85 2.56 2.56 0 00.35-1.48 3.083 3.083 0 00-.2-1.06 1.763 1.763 0 00-.54-.74 2.258 2.258 0 00-.91-.43 5.008 5.008 0 00-1.28-.12 1.14 1.14 0 00-.82.26 1 1 0 00-.24.68v1l.08 3.07h.49c.176.011.353.011.53 0zm18.76 2.66L91.03 124c-.79-.86-1.57-1.73-2.35-2.62-.25-.27-.49-.56-.74-.84-.25-.28-.49-.57-.72-.86l-.72-.88.1.34c0 .11.07.22.1.34.11.36.25.81.4 1.32.15.51.32 1.07.49 1.66.17.59.35 1.18.53 1.76.18.58.36 1.14.52 1.66.06.23.13.45.2.68.07.23.12.43.16.63l.56-.22.56-.22.22.67-2.9 1-.16-.5c.25-.068.469-.22.62-.43a.88.88 0 00.11-.6 4.768 4.768 0 00-.15-.71l-2-7-.18-.61c-.06-.2-.12-.4-.17-.6l-.54.2-.54.21-.22-.66 2.33-.77 4.6 5.17c.24.26.47.52.69.78.23.26.46.53.7.78.24.25.47.53.71.8 0-.31 0-.68.07-1.11.07-.43 0-.8.06-1.11.07-1.26.17-2.53.28-3.81.11-1.28.2-2.59.27-3.94l2.25-.74.16.5a1 1 0 00-.57.35.92.92 0 00-.18.64c.03.345.114.682.25 1l2.67 6.68c.078.159.144.322.2.49.05.16.1.31.15.44l.54-.2.55-.21.22.67-3.4 1.12-.17-.5c.26-.07.484-.234.63-.46a1.06 1.06 0 00.08-.7 5.486 5.486 0 00-.3-1l-2-4.91c-.06-.16-.12-.32-.19-.47-.07-.15-.12-.32-.19-.48l-.19-.48v.26c-.005.1-.005.2 0 .3l-.62 9.57-.42.17zm8.62-3.45l-.27-.46a.992.992 0 00.5-.59c.06-.273.06-.557 0-.83-.06-.31-.12-.67-.2-1.09l-1.77-9.4.33-.19 7.73 6c.186.153.416.353.69.6.229.198.422.435.57.7l.45-.31.45-.3.36.6-3.14 1.88-.27-.45c.34-.22.52-.43.54-.65a.777.777 0 00-.18-.59 3.028 3.028 0 00-.47-.47l-1.25-1-3.52 2.21.39 1.76c.058.204.105.411.14.62 0 .16.06.34.09.53l.52-.35c.18-.11.35-.23.51-.34l.37.6-2.57 1.52zm.4-5.07l3.17-1.9-2.54-2-.81-.66c-.28-.21-.55-.43-.82-.66.07.31.13.62.18.94.05.32.12.63.17 1l.65 3.28zm9.74-1.84c.24-.191.398-.466.44-.77a1.051 1.051 0 00-.28-.67c-.18-.23-.4-.49-.65-.76l-4.61-5.15-.4-.47-.33-.42-.41.4-.4.41-.47-.52 2.8-2.53a9.341 9.341 0 012.19-1.51 5.666 5.666 0 012.23-.62 4.625 4.625 0 012.18.42c.767.372 1.448.9 2 1.55.48.538.86 1.157 1.12 1.83.258.665.37 1.378.33 2.09a5.37 5.37 0 01-.6 2.2 7.09 7.09 0 01-1.67 2.1l-3.12 2.81-.35-.39zm1-2.68l.48.55c.113.129.216.266.31.41.23-.18.43-.35.61-.51l.46-.4.23-.21a4.36 4.36 0 001.51-3.29 4.917 4.917 0 00-.38-1.81 6.405 6.405 0 00-3.25-3.3 3.997 3.997 0 00-2.41-.16 6.087 6.087 0 00-2.57 1.47 1.166 1.166 0 00-.45.73c.001.248.093.486.26.67.18.23.39.49.65.77l4.55 5.08zm8.97-12.91a2.107 2.107 0 00-.92-.46.854.854 0 00-.66.26 6.005 6.005 0 00-.69.86l-.67 1 2.91 2.22.58.45c.135.107.262.224.38.35l1.82-2.46c.254-.331.441-.708.55-1.11.094-.369.051-.76-.12-1.1a3.174 3.174 0 00-1-1.13l.33-.43 2.42 2-5 6.56-.42-.32c.197-.23.297-.528.28-.83a1.002 1.002 0 00-.4-.61c-.22-.187-.48-.397-.78-.63l-5.5-4.22-.48-.39-.41-.35-.32.48-.33.47-.55-.42 4.66-6.12 2.28 1.63-.32.42a2.933 2.933 0 00-1.32-.64 1.46 1.46 0 00-1 .22 3.212 3.212 0 00-.78.78l-.81 1.12a1.405 1.405 0 00-.35.8.994.994 0 00.3.62c.2.187.47.417.81.69l2 1.55 1.89-2.41-1.17-.75.43-.56 2.67 2-.31.46zm4.6-8.22l-1-.46 2.32-5.18 1 .43-2.32 5.21zm-78.7 6.14v-.27a2.6 2.6 0 00.48-.25c.09-1.1.123-2.206.1-3.31v-2.28a.58.58 0 00-.1-.41 2.111 2.111 0 00-.75-.13v-.42h4.65c.267-.015.534-.015.8 0v.06c-.085.493-.136.99-.15 1.49h-.4c0-.261-.02-.522-.06-.78 0 0-.1-.07-.23-.1a6.078 6.078 0 00-1.28-.12h-1c0 1-.07 1.87-.07 2.48h1c.28.025.56.025.84 0a.19.19 0 00.12-.14c.038-.211.062-.425.07-.64h.46V96h-.44a2.852 2.852 0 00-.09-.77.181.181 0 00-.13-.08 7.253 7.253 0 00-1.14-.06 5.463 5.463 0 00-.65 0v.54c0 1 0 1.69.05 2.21h1c.521.01 1.043-.02 1.56-.09.1-.349.18-.702.24-1.06h.42a16.797 16.797 0 00-.13 1.73H49.8c-.4 0-1.15.08-1.78.1zm7.11-2.13h.44c-.024.29-.024.58 0 .87a1 1 0 00.29.34 2 2 0 00.64.34c.261.089.535.133.81.13a1.6 1.6 0 001.19-.38 1.179 1.179 0 00.43-.94 1.08 1.08 0 00-.28-.8 2.06 2.06 0 00-1.09-.39 6.378 6.378 0 01-1.61-.37 1.51 1.51 0 01-.65-.6 1.84 1.84 0 01-.24-1 2.171 2.171 0 01.66-1.59 3 3 0 012.13-.66c.336.002.67.032 1 .09.307.06.605.154.89.28l.05.12c-.05.19-.087.385-.11.58 0 .17 0 .47-.06.89h-.43a4.207 4.207 0 00-.08-.87 1.08 1.08 0 00-.49-.35 2.09 2.09 0 00-.89-.19 1.58 1.58 0 00-1.07.34 1.082 1.082 0 00-.38.86 1 1 0 00.15.56 1 1 0 00.44.36c.392.122.794.21 1.2.26a5.29 5.29 0 011.13.24c.306.118.568.328.75.6a2 2 0 01.25 1 2.24 2.24 0 01-.82 1.77 3.23 3.23 0 01-2.23.71c-.386 0-.771-.04-1.15-.12a4.7 4.7 0 01-1.06-.4c.06-.209.1-.423.12-.64.042-.345.066-.692.07-1.04zm8.09 2.13v-.42c.2.015.4.015.6 0a.31.31 0 00.3-.29c0-.15 0-.68.06-1.6v-4a.78.78 0 00-.35 0h-1.21a.91.91 0 00-.33.05.16.16 0 00-.06.08s0 .34-.09.89h-.43a16.51 16.51 0 00-.05-1.66h.05c1.06 0 2.09.07 3.09.07s2.12 0 3.36-.07v.08c-.06.46-.11 1-.13 1.62h-.42c0-.309-.03-.617-.09-.92a.211.211 0 00-.16-.08 12.3 12.3 0 00-1.6-.06h-.12a.737.737 0 000 .26v5.2a.609.609 0 00.12.41c.263.059.53.092.8.1v.42h-1.57a8.11 8.11 0 00-1.77-.08zM70.44 97a.82.82 0 01.81.8.82.82 0 01-.81.809.8.8 0 01-.57-.239.81.81 0 01.58-1.38l-.01.01zm6.06 1.52v-.42c.355-.005.71-.038 1.06-.1a.29.29 0 00.14-.13 4.2 4.2 0 00.09-1v-4.22a.089.089 0 00-.03-.068.088.088 0 00-.07-.022.25.25 0 00-.14 0l-1.38.63h-.07a4.086 4.086 0 00-.1-.61v-.08a63.8 63.8 0 003.14-1l.13.07c0 .47-.08 1.11-.1 1.91-.02.8 0 1.79 0 2.93-.02.49 0 .983.06 1.47a.258.258 0 00.12.17c.326.086.663.13 1 .13l.06.06v.3l-.06.06h-1.91l-1.94-.08zM85.28 95c-.233.27-.502.505-.8.7a1.67 1.67 0 01-.76.15 1.5 1.5 0 01-1.22-.53 2.12 2.12 0 01-.46-1.45 2.58 2.58 0 01.65-1.82 2.202 2.202 0 013.11-.16c.23.204.41.457.53.74.209.524.304 1.087.28 1.65a5.259 5.259 0 01-.46 2.34 3.82 3.82 0 01-1.33 1.49 4.07 4.07 0 01-2 .63l-.43-.34.13-.19h.43a1.86 1.86 0 001.09-.35 2.36 2.36 0 00.82-1c.244-.592.386-1.22.42-1.86zm-.89-.06a.84.84 0 00.67-.28 1.37 1.37 0 00.25-.9 2.64 2.64 0 00-.29-1.43.89.89 0 00-.76-.42.77.77 0 00-.67.34c-.2.312-.29.681-.26 1.05-.029.455.08.907.31 1.3a.88.88 0 00.75.34zm5.02-.01c.23-.272.5-.508.8-.7a1.74 1.74 0 01.75-.16 1.49 1.49 0 011.18.53c.325.41.485.928.45 1.45a2.69 2.69 0 01-.68 1.89 2.09 2.09 0 01-1.61.68 2.13 2.13 0 01-1.18-.33 2.11 2.11 0 01-.8-1 4.05 4.05 0 01-.29-1.65 4.85 4.85 0 01.47-2.25 3.75 3.75 0 011.38-1.47 3.69 3.69 0 011.94-.57l.43.38-.16.18c-.15-.015-.3-.015-.45 0a1.79 1.79 0 00-1 .35 2.42 2.42 0 00-.82 1 4.762 4.762 0 00-.41 1.67zm.91.06a.838.838 0 00-.7.28 1.35 1.35 0 00-.25.89c-.04.51.06 1.022.29 1.48a.892.892 0 00.76.44.81.81 0 00.67-.35c.191-.33.279-.71.25-1.09a2.21 2.21 0 00-.3-1.3.82.82 0 00-.72-.35zm6.83.01c-.23.272-.5.508-.8.7a1.67 1.67 0 01-.76.15 1.51 1.51 0 01-1.18-.52 2.12 2.12 0 01-.46-1.45 2.59 2.59 0 01.66-1.82 2.2 2.2 0 013.64.58 4.19 4.19 0 01.25 1.64 5.261 5.261 0 01-.46 2.34 3.821 3.821 0 01-1.33 1.49 4.132 4.132 0 01-2 .63l-.43-.34.12-.19h.43a1.86 1.86 0 001.09-.35 2.29 2.29 0 00.82-1 5.65 5.65 0 00.41-1.86zm-.88-.06a.862.862 0 00.67-.28 1.37 1.37 0 00.24-.9 2.64 2.64 0 00-.29-1.43.89.89 0 00-.76-.42.77.77 0 00-.67.34c-.2.312-.29.681-.26 1.05-.029.455.08.908.31 1.3a.89.89 0 00.76.33v.01z" fill="#F4EDE4"/></svg>