<svg version="1.2" baseProfile="tiny-ps" xmlns="http://www.w3.org/2000/svg" width="104" height="49"><defs><clipPath clipPathUnits="userSpaceOnUse" id="cp1"><path d="M1 0h102.93v48H1V0Z"/></clipPath></defs><style>.shp0{fill:#fff}</style><g id="Web 1366 – 6"><g id="Group 298" clip-path="url(#cp1)"><path id="Path 100" class="shp0" d="M21.07 19.31c.67 1.73 1.02 2.6 1.73 4.34a62.844 62.844 0 0 0-12.63 9.81l-.28-.28c-.08-6.62.87-12.92 2.36-19.35-1.85 1.22-2.75 1.89-4.52 3.27-.51.4-.95.75-1.26 1.03-.35.27-.63.55-.91.83-.51.55-.94 1.41-1.18 2.52-.27 1.14-.31 2.13-.11 2.99-.4.36-.59.52-.91.83-.94-1.38-1.42-2.09-2.36-3.51 4.45-4.21 9.36-8 14.68-11.03.08.12.11.2.19.31-2.08 6.15-3.18 12.65-3.46 19.12 1.46-1.3 2.2-1.89 3.74-3.08.63-.47 1.3-1.02 2.01-1.61.7-.59 1.1-1.03 1.22-1.34.27-.71.47-1.46.62-2.25.12-.83.2-1.5.2-2.05.32-.23.51-.31.87-.55Z"/><path id="Path 101" fill-rule="evenodd" class="shp0" d="M42.59 16.16c-3.11.59-4.64.98-7.67 2.01-.08-.28-.16-.44-.24-.71.67-.24 1.22-.51 1.61-.71.44-.24.63-.43.55-.55 0-.08-.04-.12-.08-.2-.03-.08-.07-.16-.15-.2-.99-1.1-1.5-1.61-2.56-2.68-2.75.87-4.13 1.38-6.81 2.56-.04.56-.08 1.03-.08 1.42v1.11c0 .31.04.59.08.75.04.19.08.35.12.43.12.24.47.31 1.06.24.59-.12 1.22-.28 1.89-.52.12.28.16.4.28.67-2.68 1.11-4.02 1.74-6.57 3.16-.16-.28-.2-.4-.36-.63.2-.12.43-.32.75-.56.27-.23.51-.43.67-.67.23-.31.43-.63.51-.9.08-.28.16-.63.16-1.03.12-2.09.27-4.49.59-7.13.31-2.64.75-5.01 1.18-7.09.51-.2.75-.28 1.26-.48 3.81 3.04 7.32 6.43 10.54 10.13.2.24.4.4.59.51.2.12.47.24.83.32.23.04.51.08.86.08.36 0 .63-.04.87-.04 0 .27.04.43.12.71Zm-9.29-3.79c-1.93-1.77-2.91-2.64-5-4.29-.47 2.6-.66 3.94-.9 6.54 2.28-1.02 3.46-1.5 5.9-2.25Z"/><path id="Path 102" class="shp0" d="M63.36 9.73h-.94c-.39 0-.71.04-.98.08-.32.08-.51.2-.67.4-.12.19-.24.39-.24.63-.04.47-.08.67-.12 1.14-.07.83-.11 1.38-.11 1.69 0 .28.04.67 0 .71-.32.4-2.44.56-3.62.71-1.18.2-2.33.28-3.47.32-1.22.04-2.36-.08-3.5-.36-1.14-.27-2.2-.67-3.11-1.18-.94-.55-1.77-1.22-2.44-2.09-.67-.86-1.1-1.85-1.3-2.99-.19-1.11-.07-2.17.32-3.19.39-1.03 1.06-1.97 2.05-2.8.94-.79 2.08-1.5 3.5-1.97 1.41-.48 2.95-.75 4.6-.79 1.34-.04 2.48.08 3.46.31.99.24 1.81.52 2.56.83.28-.27.43-.39.71-.67.51.04.79.04 1.3.12-.12 2.05-.2 3.07-.32 5.12-.51-.04-.74-.08-1.26-.11-.15-.6-.39-1.15-.7-1.74-.28-.55-.71-1.1-1.18-1.54-.52-.47-1.15-.82-1.89-1.1-.75-.27-1.7-.39-2.76-.39-1.18 0-2.2.19-3.11.55-.9.35-1.65.87-2.24 1.5-.59.63-1.02 1.38-1.26 2.28-.23.91-.31 1.85-.19 2.92.11.94.35 1.77.78 2.56.4.79.91 1.46 1.54 2.01.63.55 1.37.98 2.24 1.3.87.31 1.81.43 2.87.43.79 0 1.5-.08 2.17-.27.66-.16 1.29-.36 1.41-.55.12-.2.16-.71.16-1.07.04-.35.04-.67.04-.94 0-.32.04-.48.04-.83 0-.28-.04-.55-.12-.79-.12-.24-.31-.39-.67-.51-.31-.12-.75-.2-1.3-.28-.55-.08-.98-.08-1.3-.12v-.74c3.66 0 5.51.11 9.17.59-.04.39-.08.51-.12.82Z"/><path id="Path 103" class="shp0" d="M82.33 16.75c-.87 1.5-1.3 2.28-2.12 3.78-4.84-2.17-9.96-3.7-15.15-4.61.04-.27.08-.43.11-.71.28.04.63.08 1.11.12.47.04.74.04.9.04.32-.04.51-.12.67-.28.16-.15.24-.31.31-.59.91-4.14 1.34-6.22 2.21-10.36.04-.24.04-.44-.04-.63-.08-.2-.32-.4-.63-.59-.28-.16-.63-.32-1.1-.48-.47-.15-.87-.27-1.14-.31.04-.28.08-.44.11-.71 6.1 1.22 11.73 2.88 17.47 5.16-.55 1.3-.82 1.97-1.37 3.27-.43-.19-.67-.27-1.1-.47 0-.55-.24-1.26-.67-2.09-.47-.83-1.03-1.38-1.62-1.61-.31-.16-.7-.28-1.14-.48-.43-.16-.94-.35-1.53-.51-1.42-.43-2.13-.63-3.54-1.03-.59 2.25-.91 3.39-1.5 5.68.95.24 1.42.39 2.32.67.75.24 1.3.35 1.7.35.39 0 .74-.03 1.06-.15.27-.12.55-.32.82-.55.28-.28.48-.52.63-.79.44.15.67.23 1.11.39-.83 2.17-1.22 3.23-2.01 5.4-.39-.16-.63-.24-1.02-.35.07-.32.07-.71.03-1.11-.03-.39-.11-.71-.23-.94-.2-.36-.47-.63-.83-.83-.35-.2-.82-.4-1.45-.59-.91-.28-1.38-.4-2.32-.63-.44 1.69-.67 2.56-1.11 4.25-.11.44-.15.79-.15 1.03 0 .27.11.51.31.67.2.19.47.35.87.51.39.16.94.32 1.65.55.27.08.67.2 1.14.36.47.15.87.27 1.18.39l1.06.24c.36.08.67.08.87 0 .51-.16 1.14-.44 1.81-.87.71-.43 1.18-.75 1.45-.99.28.12.48.2.87.4Z"/><path id="Path 104" fill-rule="evenodd" class="shp0" d="M98.86 33.46c-1.58-1.58-2.36-2.29-4.02-3.71-.04-1.81-.15-3.46-.39-4.88-.2-1.42-.51-2.92-.91-4.5-.74-.51-1.1-.74-1.84-1.22-.99 1.58-1.5 2.37-2.48 3.94-.12.2-.2.4-.2.63 0 .2.12.44.31.71.12.12.36.32.67.59.32.28.59.52.83.67-.16.24-.24.36-.43.6-2.76-1.94-4.17-2.76-7.09-4.3.12-.28.2-.39.36-.67.2.08.51.24.9.39.4.16.67.28.83.32.28.04.51.04.71-.04.19-.08.35-.24.51-.47 2.12-3.71 3.15-5.56 5.27-9.26.12-.2.2-.44.16-.63 0-.24-.16-.48-.47-.75-.2-.2-.51-.44-.87-.67-.35-.28-.71-.48-.94-.63.12-.28.19-.4.35-.67 3.27 1.65 6.53 3.66 9.52 5.83.83.59 1.58 1.26 2.21 1.89.63.67 1.14 1.34 1.53 2.05.39.67.59 1.3.59 1.93.04.63-.16 1.14-.59 1.62-.39.43-.83.71-1.3.86-.47.16-1.06.16-1.65.08-.55-.08-1.18-.23-1.81-.51-.67-.24-2.08-.91-2.08-.91-.12.08.51 2.6.62 3.59.12.95.28 2.13.4 3.47.04.59.12 1.1.27 1.46.12.39.28.74.44 1.06.11.24.31.51.55.79.23.31.43.55.63.71-.28.31-.36.39-.59.63Zm1.18-13.64c.55-.71.67-1.49.31-2.44-.35-.91-1.14-1.85-2.4-2.72-.94-.67-1.41-.99-2.4-1.58-1.34 2.13-2.01 3.2-3.38 5.32l1.69 1.11c1.18.79 2.32 1.26 3.46 1.38 1.18.12 2.09-.24 2.72-1.07Z"/><path id="Path 105" class="shp0" d="M33.7 33.42v-.24c.15-.08.27-.16.43-.23.04-.44.08-1.38.08-2.84 0-.99 0-1.62-.04-1.93 0-.16-.04-.28-.08-.32-.04-.04-.27-.08-.63-.12v-.35c.67.04 1.22.04 1.61.04l2.36-.04c.24 0 .48 0 .67.04l.04.04c-.08.31-.12.75-.15 1.26h-.36c0-.43-.04-.63-.04-.67 0-.04-.08-.04-.19-.08-.24-.04-.59-.08-1.11-.08-.23 0-.51 0-.82.04-.04.91-.08 1.58-.08 2.13.31.04.59.04.86.04.4 0 .63 0 .71-.04.04 0 .08-.04.12-.12 0-.04.04-.24.08-.55h.35c0 .47-.04.79-.04.94l.04.99h-.35c-.04-.39-.04-.59-.08-.67 0-.04-.04-.04-.12-.08-.15-.04-.47-.04-.98-.04-.16 0-.36 0-.55.04v.47c0 .83 0 1.46.04 1.9h.86c.48 0 .95-.04 1.34-.08.08-.28.16-.56.2-.91h.35c-.08.51-.12.99-.12 1.46-.27.04-.51.04-.74.04h-2.13c-.51-.04-1.02-.04-1.53-.04Z"/><path id="Path 106" class="shp0" d="M39.76 31.61h.39c0 .43 0 .67.04.74.04.08.12.16.24.28.15.12.31.2.55.28.23.08.47.11.7.11.4 0 .71-.11.99-.31.23-.2.35-.47.35-.79 0-.28-.08-.51-.23-.67-.16-.16-.48-.27-.95-.35-.67-.08-1.14-.2-1.37-.32-.24-.12-.44-.27-.56-.51-.11-.24-.19-.51-.19-.83 0-.55.19-.98.55-1.38.39-.39.98-.55 1.81-.55.31 0 .63.04.86.08.24.04.52.12.75.24l.04.11c-.04.2-.08.36-.08.48 0 .15-.04.39-.04.75h-.35c0-.44-.04-.71-.08-.75-.04-.08-.2-.2-.43-.32-.24-.12-.47-.16-.75-.16-.39 0-.71.08-.91.28-.19.2-.31.43-.31.75 0 .2.04.35.12.47.08.12.19.24.35.32.16.08.51.15 1.03.23.47.08.78.16.98.2.27.12.47.28.63.51.16.24.2.51.2.87 0 .59-.24 1.1-.71 1.54-.48.39-1.1.59-1.89.59-.36 0-.67-.04-.99-.12-.27-.08-.59-.2-.9-.36.04-.19.08-.39.12-.55 0-.15.04-.47.04-.86Z"/><path id="Path 107" class="shp0" d="M46.64 33.42v-.36c.16 0 .32 0 .51-.03.08 0 .16-.04.16-.08.04-.04.08-.08.08-.2.04-.12.04-.59.04-1.38V27.94c0-.04-.12-.04-.32-.04-.39 0-.74 0-1.02.04-.16 0-.27.04-.27.04-.04 0-.04.04-.04.08s-.04.28-.08.75h-.36c0-.55 0-1.03-.04-1.42l.04-.04c.91.04 1.77.08 2.64.08.87 0 1.81-.04 2.87-.08l.04.08c-.04.39-.08.87-.12 1.38h-.35c-.04-.47-.04-.75-.08-.79 0-.04-.08-.04-.12-.08-.23-.04-.67-.04-1.37-.04-.04 0-.08 0-.12.04v.24l-.04 2.91c0 .83 0 1.34.04 1.54 0 .2.04.32.12.36.04.04.27.04.66.07v.36c-.43 0-.86-.04-1.33-.04-.63.04-1.14.04-1.54.04Z"/><path id="Path 108" class="shp0" d="M52.82 32.16c.19 0 .35.08.47.19.12.12.2.32.2.48 0 .19-.08.35-.2.47-.12.12-.32.2-.47.2-.2 0-.36-.08-.47-.2a.713.713 0 0 1-.2-.47c0-.16.08-.36.2-.48.11-.15.27-.19.47-.19Z"/><path id="Path 109" class="shp0" d="m57.97 33.42-.03-.04v-.28l.03-.04c.56-.04.87-.07.95-.11l.12-.12c.04-.08.08-.36.08-.87.04-.83.04-1.58.04-2.21 0-.82 0-1.3-.04-1.41 0-.04-.04-.08-.08-.08s-.08 0-.12.04l-1.18.55-.04-.04c-.04-.2-.04-.4-.08-.51l.04-.08c1.06-.32 1.97-.63 2.68-.91l.11.08c-.04.39-.07.95-.07 1.65 0 .71-.04 1.54-.04 2.53 0 .67 0 1.1.04 1.26 0 .08.03.12.11.16.08.03.36.07.87.11l.04.04v.28l-.04.04H59.71c-.55-.04-1.11-.04-1.74-.04Z"/><path id="Path 110" fill-rule="evenodd" class="shp0" d="M65.49 30.42c-.32.36-.55.56-.67.59-.16.08-.39.12-.67.12-.39 0-.75-.15-1.02-.43-.28-.32-.4-.71-.4-1.26 0-.63.2-1.14.56-1.54.35-.39.82-.59 1.41-.59.4 0 .75.08 1.02.28.32.19.52.47.67.78.16.36.24.83.24 1.42 0 .83-.12 1.5-.39 2.01-.28.52-.63.95-1.14 1.26-.52.32-1.07.52-1.74.56l-.35-.28.12-.16c.16 0 .31.04.35.04.32 0 .63-.12.95-.31.31-.2.55-.48.7-.87.2-.36.32-.91.36-1.62Zm-.75-.08c.24 0 .43-.07.59-.23.16-.16.2-.44.2-.79 0-.55-.08-.98-.24-1.22-.16-.24-.39-.36-.63-.36-.23 0-.43.08-.59.28-.16.2-.19.51-.19.91 0 .51.07.86.27 1.1.08.24.32.31.59.31Z"/><path id="Path 111" fill-rule="evenodd" class="shp0" d="M69.03 30.35c.31-.36.55-.56.67-.6.16-.07.39-.11.63-.11.39 0 .75.15 1.02.43.28.31.39.71.39 1.26 0 .67-.19 1.18-.59 1.62-.35.39-.82.59-1.37.59-.4 0-.71-.08-1.03-.28-.31-.2-.51-.47-.66-.83-.16-.35-.24-.82-.24-1.42 0-.78.12-1.41.39-1.93.28-.51.67-.94 1.18-1.26a3.16 3.16 0 0 1 1.66-.47l.35.32-.12.15c-.16-.04-.31-.04-.39-.04-.28 0-.59.12-.87.32-.31.2-.55.47-.71.83-.15.27-.27.78-.31 1.42Zm.75.07c-.28 0-.47.08-.59.24-.16.16-.2.43-.2.75 0 .59.08 1.02.24 1.26.15.24.39.36.63.36.23 0 .43-.08.55-.32.15-.2.23-.51.23-.95 0-.51-.08-.86-.27-1.1-.12-.16-.32-.24-.59-.24Z"/><path id="Path 112" fill-rule="evenodd" class="shp0" d="M75.64 30.42c-.31.36-.55.56-.67.59-.16.08-.39.12-.67.12-.39 0-.74-.15-1.02-.43-.28-.32-.39-.71-.39-1.26 0-.63.19-1.14.55-1.54.35-.39.82-.59 1.41-.59.4 0 .75.08 1.03.28.31.19.51.47.67.78.15.36.23.83.23 1.42 0 .83-.12 1.5-.39 2.01-.28.52-.63.95-1.14 1.26-.51.32-1.07.52-1.73.56l-.36-.28.12-.16c.16 0 .31.04.35.04.32 0 .63-.12.95-.31.31-.2.55-.48.71-.87.19-.36.27-.91.35-1.62Zm-.75-.08c.24 0 .44-.07.59-.23.16-.16.2-.44.2-.79 0-.55-.08-.98-.24-1.22a.753.753 0 0 0-.66-.36.72.72 0 0 0-.6.28c-.15.2-.19.51-.19.91 0 .51.08.86.27 1.1.12.24.32.31.63.31Z"/><path id="Path 113" class="shp0" d="m12.61 44.53-.12 1.7H7.77v-.28c.08 0 .19 0 .31-.04.12 0 .24-.04.28-.04.08-.04.15-.08.19-.16.04-.08.04-.15.04-.23v-4.14c0-.08 0-.16-.04-.24-.04-.08-.07-.12-.19-.15a.578.578 0 0 0-.28-.08c-.12 0-.23-.04-.27-.04v-.28h4.44v1.38h-.31c-.04-.2-.16-.43-.36-.67-.19-.24-.35-.35-.51-.39-.08 0-.19 0-.31-.04s-.24 0-.4 0h-.9v2.28h.63c.2 0 .35 0 .47-.04.08-.04.2-.11.24-.19.08-.08.12-.2.15-.32.04-.12.08-.24.08-.35h.32v2.24h-.32c0-.12-.04-.27-.08-.39-.03-.16-.07-.24-.15-.32-.08-.11-.2-.15-.28-.19-.12-.04-.23-.04-.43-.04h-.63v1.73c0 .16 0 .32.04.39.04.12.08.16.16.24.07.04.15.08.27.12.12 0 .28.04.51.04h.71c.12 0 .2-.04.32-.04.11-.04.19-.08.23-.12.12-.12.24-.31.4-.59.11-.28.23-.47.27-.59h.24v-.16Z"/><path id="Path 114" fill-rule="evenodd" class="shp0" d="M16.85 46.15c-.11.04-.23.08-.31.12-.08.04-.2.04-.31.04-.2 0-.4-.04-.52-.16-.11-.08-.19-.24-.23-.44h-.04c-.16.2-.36.36-.55.44-.2.12-.44.16-.71.16-.32 0-.55-.08-.75-.28-.2-.2-.27-.43-.27-.71 0-.16.04-.28.07-.39.04-.12.12-.24.2-.32.08-.08.16-.16.28-.2.12-.08.19-.11.31-.15.12-.04.36-.12.75-.24.35-.12.63-.24.75-.28v-.39c0-.04 0-.12-.04-.2 0-.12-.04-.19-.08-.27-.04-.12-.12-.2-.24-.28-.08-.08-.23-.12-.43-.12-.12 0-.24.04-.35.08-.12.04-.2.08-.24.12 0 .04 0 .12.04.24.04.11.04.19.04.27 0 .08-.04.2-.12.28-.08.08-.2.12-.35.12-.12 0-.24-.04-.32-.16-.08-.08-.08-.2-.08-.32s.04-.23.12-.35c.08-.12.2-.2.36-.32.11-.08.27-.15.43-.19.16-.04.35-.08.51-.08.24 0 .43 0 .59.04.16.04.31.08.47.19.12.12.24.24.32.4.08.16.11.39.11.67v2.01c0 .12 0 .19.04.23.04.08.08.12.16.16.04.04.12.04.2.04h.27v.24h-.08Zm-1.37-2.13c-.24.08-.44.12-.59.2-.16.08-.32.15-.47.23-.12.08-.24.2-.32.32-.08.12-.12.27-.12.43 0 .24.04.4.16.51.12.12.28.16.43.16.2 0 .36-.04.51-.16.16-.11.28-.19.36-.31l.04-1.38Z"/><path id="Path 115" class="shp0" d="M19.89 44.26c.11.07.19.19.23.35.04.16.08.28.08.47 0 .36-.16.67-.43.91-.28.24-.63.35-1.06.35-.24 0-.44-.03-.63-.11-.2-.08-.32-.16-.44-.24l-.08.28h-.31l-.04-1.38h.28c.04.11.07.23.11.35.04.12.16.28.24.4.12.11.24.23.39.31.16.08.32.12.52.12.27 0 .47-.04.59-.16.15-.12.19-.27.19-.51 0-.12-.04-.2-.08-.28a.436.436 0 0 0-.19-.19c-.08-.08-.2-.12-.32-.16-.12-.04-.27-.12-.43-.16-.12-.04-.28-.08-.43-.16-.16-.08-.28-.15-.4-.23-.12-.08-.19-.2-.27-.36a.913.913 0 0 1-.12-.47c0-.32.12-.59.35-.83.24-.24.55-.35.99-.35.15 0 .31.04.47.08.16.03.31.07.39.15l.08-.19h.28l.08 1.3h-.28c-.04-.28-.2-.52-.35-.71a.93.93 0 0 0-.67-.28c-.24 0-.4.04-.51.16-.12.12-.2.24-.2.39 0 .12.04.24.08.32.04.08.12.16.19.2.08.04.2.11.32.15.12.04.27.12.47.16.2.04.36.12.51.2.16-.04.32.04.4.12Z"/><path id="Path 116" class="shp0" d="M20.55 47.53c0-.12.04-.24.12-.32.08-.08.16-.12.28-.12a.468.468 0 0 1 .39.16c.04.04.08.08.12.16.04.08.08.12.12.16.11-.08.31-.28.47-.56.2-.31.31-.59.39-.78-.23-.63-.47-1.23-.71-1.7-.19-.51-.43-1.02-.66-1.57-.04-.12-.12-.24-.28-.28a.64.64 0 0 0-.35-.12v-.27h1.81v.27c-.08 0-.2 0-.28.04-.12.04-.16.08-.16.12v.08c0 .04.04.08.04.12.12.27.28.67.47 1.14.2.51.36.91.48 1.22.11-.28.23-.59.39-.91.12-.31.28-.67.43-1.1 0-.04.04-.12.08-.2.04-.08.04-.15.04-.23 0-.08-.08-.12-.2-.2-.11-.08-.23-.08-.35-.12v-.27h1.49v.23c-.07 0-.19.08-.31.16s-.24.2-.28.35c-.31.75-.59 1.42-.86 2.05-.24.63-.43 1.07-.55 1.34-.16.4-.32.67-.47.87-.12.2-.28.4-.4.51-.12.12-.23.2-.35.24-.12.04-.2.04-.32.04-.19 0-.39-.04-.51-.16-.04-.12-.08-.23-.08-.35Z"/><path id="Path 117" fill-rule="evenodd" class="shp0" d="M31.37 41.89c0 .32-.04.55-.15.79-.12.24-.28.43-.48.59-.19.16-.43.28-.67.32-.23.04-.51.11-.78.11h-.63v1.74c0 .08 0 .16.04.23.04.08.08.12.19.16.04 0 .12.04.28.04.12 0 .24.04.35.04v.28h-2.44v-.28c.08 0 .16 0 .28-.04.12 0 .2-.04.28-.04.07-.04.15-.08.15-.16.04-.07.04-.15.04-.27v-4.14c0-.08 0-.2-.04-.24-.04-.04-.08-.11-.19-.15-.12-.04-.2-.08-.32-.08s-.2-.04-.27-.04v-.28h2.59c.55 0 .99.12 1.3.4.32.27.47.59.47 1.02Zm-1.22.99c.08-.12.16-.28.2-.4.04-.16.04-.27.04-.35 0-.16 0-.32-.04-.48-.04-.15-.12-.31-.2-.43a.698.698 0 0 0-.35-.27c-.16-.08-.35-.12-.59-.12h-.55v2.52h.39c.28 0 .51-.04.71-.12.16-.12.31-.2.39-.35Z"/><path id="Path 118" class="shp0" d="M33.81 46.23h-1.92v-.28h.19c.08 0 .12 0 .16-.04.08-.04.12-.08.16-.12.04-.04.04-.15.04-.23v-4.61c0-.08-.04-.2-.08-.28-.04-.08-.08-.16-.16-.2-.04-.04-.12-.08-.27-.08-.16 0-.24-.04-.32-.04v-.27l1.5-.08.04.08v5.48c0 .08 0 .15.04.23.03.08.07.12.15.16.08.04.12.04.16.08.04 0 .12.04.2.04v.16h.11Z"/><path id="Path 119" fill-rule="evenodd" class="shp0" d="M38.06 46.15c-.11.04-.23.08-.31.12-.08.04-.2.04-.32.04-.19 0-.39-.04-.51-.16-.12-.08-.19-.24-.23-.44h-.04c-.16.2-.36.36-.55.44-.2.12-.44.16-.71.16-.32 0-.55-.08-.75-.28-.2-.2-.27-.43-.27-.71 0-.16.03-.28.07-.39.04-.12.12-.24.2-.32.08-.08.16-.16.28-.2.11-.08.19-.11.31-.15.12-.04.35-.12.75-.24.35-.12.63-.24.75-.28v-.39c0-.04 0-.12-.04-.2 0-.12-.04-.19-.08-.27-.04-.12-.12-.2-.24-.28-.08-.08-.23-.12-.43-.12-.12 0-.24.04-.36.08-.11.04-.19.08-.23.12 0 .04 0 .12.04.24.04.11.04.19.04.27 0 .08-.04.2-.12.28-.08.08-.2.12-.35.12-.12 0-.24-.04-.32-.16-.08-.08-.08-.2-.08-.32s.04-.23.12-.35c.08-.12.2-.2.35-.32.12-.08.28-.15.44-.19.15-.04.35-.08.51-.08.23 0 .43 0 .59.04.16.04.31.08.47.19.12.12.24.24.32.4.07.16.11.39.11.67v2.01c0 .12 0 .19.04.23.04.08.08.12.16.16.04.04.12.04.2.04h.27v.24h-.08Zm-1.41-2.13c-.24.08-.44.12-.59.2-.16.08-.32.15-.48.23-.11.08-.23.2-.31.32-.08.12-.12.27-.12.43 0 .24.04.4.16.51.12.12.27.16.43.16.2 0 .36-.04.51-.16.16-.11.28-.19.36-.31l.04-1.38Z"/><path id="Path 120" class="shp0" d="M38.18 47.53c0-.12.04-.24.12-.32.08-.08.16-.12.28-.12.08 0 .16 0 .23.04.08.04.12.08.16.12.04.04.08.08.12.16.04.08.08.12.12.16.12-.08.31-.28.47-.56.2-.31.31-.59.39-.78-.23-.63-.47-1.23-.71-1.7-.19-.51-.43-1.02-.66-1.57-.04-.12-.12-.24-.28-.28a.64.64 0 0 0-.35-.12v-.27h1.81v.27c-.08 0-.2 0-.28.04-.12.04-.16.08-.16.12v.08c0 .04.04.08.04.12.12.27.28.67.47 1.14.2.51.36.91.48 1.22.12-.28.23-.59.39-.91.12-.31.28-.67.43-1.1 0-.04.04-.12.08-.2.04-.08.04-.15.04-.23 0-.08-.08-.12-.2-.2-.11-.08-.23-.08-.35-.12v-.27h1.5v.23c-.08 0-.2.08-.32.16s-.23.2-.27.35c-.32.75-.59 1.42-.87 2.05-.24.63-.43 1.07-.55 1.34-.16.4-.32.67-.47.87-.12.2-.28.4-.4.51-.11.12-.23.2-.35.24-.12.04-.2.04-.32.04-.19 0-.39-.04-.51-.16-.04-.12-.08-.23-.08-.35Z"/><path id="Path 121" class="shp0" d="M47.15 46.34c-.35 0-.67-.07-.98-.19-.31-.12-.59-.32-.83-.59-.23-.24-.43-.56-.59-.95-.15-.35-.19-.79-.19-1.22 0-.47.08-.87.19-1.26.12-.4.32-.71.59-.95.24-.27.55-.47.87-.63.31-.16.71-.23 1.06-.23.28 0 .55.03.75.11.2.08.43.16.67.28l.16-.28h.31l.04 2.05h-.32c-.03-.19-.11-.43-.19-.63a2.2 2.2 0 0 0-.32-.59c-.11-.2-.27-.31-.47-.43-.2-.12-.39-.16-.59-.16-.27 0-.51.04-.71.16-.23.12-.43.27-.59.51-.15.24-.27.51-.35.83-.08.35-.12.71-.12 1.14 0 .36.04.71.16 1.02.08.32.23.6.39.79.16.24.39.4.63.55.24.12.51.2.79.2.23 0 .43-.04.59-.12.19-.08.35-.15.47-.27.12-.12.24-.24.35-.4.12-.15.2-.31.24-.51l.31.16c-.23.55-.55.98-.9 1.22-.43.28-.91.39-1.42.39Z"/><path id="Path 122" class="shp0" d="m54.08 46.15-1.3.08-.08-.04v-.52h-.04c-.08.08-.12.16-.23.2-.08.08-.16.16-.28.2-.12.08-.24.12-.35.16-.12.04-.28.04-.48.04-.35 0-.63-.12-.78-.36-.2-.24-.28-.55-.28-.98v-1.9c0-.07 0-.19-.04-.23a.335.335 0 0 0-.15-.16c-.04-.04-.12-.04-.2-.08-.08 0-.16-.04-.24-.04v-.27l1.34-.08.08.04v2.76c0 .27.08.51.2.67.11.15.27.23.47.23.16 0 .27-.04.39-.08s.2-.12.28-.15c.08-.04.12-.12.19-.2.04-.08.08-.12.12-.16v-2.25c0-.07 0-.15-.04-.23a.335.335 0 0 0-.15-.16c-.04-.04-.12-.04-.2-.04h-.32v-.28l1.46-.07.08.04v3.15c0 .08 0 .16.04.23.04.08.08.12.15.16.04.04.12.04.16.04h.24v.28h-.04Z"/><path id="Path 123" class="shp0" d="M57.23 44.26c.11.07.19.19.23.35.04.16.08.28.08.47 0 .36-.16.67-.43.91-.28.24-.63.35-1.06.35-.24 0-.44-.03-.63-.11-.2-.08-.32-.16-.44-.24l-.08.28h-.31l-.04-1.38h.28c.04.11.07.23.11.35.04.12.16.28.24.4.12.11.24.23.39.31.16.08.32.12.52.12.27 0 .47-.04.59-.16.15-.12.19-.27.19-.51 0-.12-.04-.2-.08-.28a.436.436 0 0 0-.19-.19c-.08-.08-.2-.12-.32-.16-.12-.04-.27-.12-.43-.16-.12-.04-.28-.08-.43-.16-.16-.08-.28-.15-.4-.23-.12-.08-.19-.2-.27-.36a.913.913 0 0 1-.12-.47c0-.32.12-.59.35-.83.24-.24.55-.35.99-.35.15 0 .31.04.47.08.16.03.31.07.39.15l.08-.19h.28l.08 1.3h-.28c-.04-.28-.2-.52-.35-.71a.93.93 0 0 0-.67-.28c-.24 0-.4.04-.51.16-.12.12-.2.24-.2.39 0 .12.04.24.08.32.04.08.12.16.19.2.08.04.2.11.32.15.12.04.27.12.47.16.2.04.36.12.51.2.16-.04.28.04.4.12Z"/><path id="Path 124" class="shp0" d="M60.61 46.07c-.16.08-.35.12-.51.2-.16.04-.35.07-.59.07-.32 0-.55-.07-.71-.23-.12-.16-.2-.4-.2-.71v-2.68h-.7v-.39h.74V41.1h.75v1.23h1.14v.39h-1.14v2.64c0 .12.04.2.08.28.04.07.12.11.2.19.08.04.19.08.35.08h.32c.11 0 .23-.04.27-.04v.2Z"/><path id="Path 125" fill-rule="evenodd" class="shp0" d="M64.9 44.18c0 .27-.04.55-.12.82-.08.28-.2.52-.39.67-.2.2-.4.4-.63.48-.24.12-.51.16-.83.16-.23 0-.51-.04-.71-.16-.23-.08-.43-.24-.59-.44-.15-.19-.31-.39-.43-.67-.12-.27-.16-.55-.16-.86 0-.63.2-1.15.55-1.54.36-.39.83-.59 1.42-.59.55 0 1.02.2 1.38.55.31.47.51.99.51 1.58Zm-.83.04c0-.2-.04-.44-.08-.63a2.12 2.12 0 0 0-.19-.6c-.08-.15-.2-.31-.36-.39-.15-.12-.31-.16-.51-.16s-.39.04-.55.16c-.16.12-.27.24-.35.43-.08.16-.16.36-.2.56-.04.19-.04.39-.04.59 0 .27.04.51.08.71.04.23.12.43.2.59.07.16.19.31.35.39.16.08.31.16.51.16.36 0 .59-.16.79-.47.23-.32.35-.79.35-1.34Z"/><path id="Path 126" class="shp0" d="M72.26 46.23h-1.93v-.28h.2c.08 0 .12 0 .15-.04.08-.04.12-.08.16-.12.04-.08.04-.15.04-.23v-2.05c0-.28-.08-.52-.2-.63a.54.54 0 0 0-.47-.24c-.12 0-.23.04-.35.08-.12.04-.24.08-.32.16-.07.08-.15.11-.19.19-.04.08-.08.12-.12.16v2.29c0 .08 0 .15.04.23.04.08.08.12.16.16.07.04.11.04.15.04.04 0 .12.04.2.04v.28h-1.89v-.28h.2c.04 0 .12 0 .16-.04.07-.04.11-.08.15-.12.04-.08.04-.16.04-.23v-2.05c0-.28-.08-.52-.19-.63a.57.57 0 0 0-.48-.24c-.11 0-.27.04-.35.08-.12.04-.24.12-.32.16-.07.07-.15.11-.19.19-.04.08-.08.12-.12.16v2.29c0 .08 0 .15.04.23.04.08.08.12.16.16.04.04.11.04.15.08.04.04.12.04.2.04v.27h-1.93v-.27h.2c.08 0 .12 0 .16-.04.08-.04.11-.08.15-.12.04-.08.04-.16.04-.24v-2.48c0-.08 0-.16-.04-.23-.04-.08-.07-.12-.15-.16-.04-.04-.12-.04-.2-.08-.08-.04-.16-.04-.24-.04v-.28l1.34-.08.04.04v.56h.04l.24-.24c.08-.08.19-.16.27-.24.08-.08.2-.12.36-.15.15-.04.27-.08.47-.08.27 0 .47.08.67.19.19.16.31.32.39.52l.24-.24c.08-.08.15-.16.27-.24.12-.08.24-.12.36-.15.11-.04.27-.08.47-.08.35 0 .59.11.79.31.19.24.27.55.27 1.03v2.01c0 .08 0 .15.04.23.04.08.08.12.16.16.08.04.12.04.19.04.08 0 .12.04.2.04v.2h.12Z"/><path id="Path 127" class="shp0" d="M80.36 43.94c-.08 0-.15.04-.27.04-.12 0-.2.04-.28.08-.08.04-.16.08-.16.16-.03.08-.03.15-.03.27V45.87c-.36.16-.71.28-1.07.36-.35.08-.7.11-1.06.11-.35 0-.71-.07-1.06-.19-.36-.12-.63-.32-.91-.59-.23-.28-.47-.56-.59-.95-.15-.35-.23-.79-.23-1.22 0-.43.08-.83.19-1.22.16-.36.36-.71.63-.99.24-.27.55-.47.91-.63.35-.16.75-.23 1.14-.23.31 0 .59.03.83.11.23.08.43.16.63.28l.15-.28h.32l.04 2.01h-.24c-.04-.23-.12-.43-.2-.67-.07-.19-.19-.39-.31-.59a1.19 1.19 0 0 0-.47-.39c-.2-.12-.44-.16-.67-.16-.28 0-.55.04-.79.16-.23.12-.43.27-.59.51-.16.24-.27.51-.39.83-.08.31-.12.71-.12 1.1 0 .36.04.71.12 1.03.08.31.19.59.39.82.16.24.39.44.63.56.24.11.55.19.87.19.23 0 .47-.04.63-.12.19-.07.31-.15.43-.23.04-.16.04-.28.04-.44V44.37c0-.11 0-.19-.04-.31-.04-.08-.08-.16-.2-.2a.752.752 0 0 0-.35-.08c-.16-.04-.28-.04-.36-.04v-.27h2.52v.47h-.08Z"/><path id="Path 128" class="shp0" d="m85 46.15-1.29.08-.08-.04v-.52h-.04c-.08.08-.12.16-.24.2-.08.08-.16.16-.27.2-.12.08-.24.12-.36.16-.12.04-.27.04-.47.04-.35 0-.63-.12-.79-.36-.15-.24-.27-.55-.27-.98v-1.9c0-.07 0-.19-.04-.23a.312.312 0 0 0-.16-.16c-.04-.04-.12-.04-.2-.08-.07 0-.15-.04-.23-.04v-.27l1.34-.08.08.04v2.76c0 .27.07.51.19.67.12.15.28.23.47.23.16 0 .28-.04.4-.08s.19-.12.27-.15c.08-.04.12-.12.2-.2.04-.08.08-.12.12-.16v-2.25c0-.07 0-.15-.04-.23a.312.312 0 0 0-.16-.16c-.04-.04-.12-.04-.2-.04h-.31v-.28l1.46-.07.07.04v3.15c0 .08 0 .16.04.23.04.08.08.12.16.16.04.04.12.04.16.04h.23v.28H85Z"/><path id="Path 129" class="shp0" d="M87.41 46.23h-1.93v-.28h.19c.08 0 .12 0 .16-.04.08-.04.12-.08.16-.12.04-.08.04-.15.04-.23v-2.45c0-.08 0-.15-.04-.23-.04-.08-.08-.12-.16-.2a.329.329 0 0 0-.23-.08c-.08-.04-.2-.04-.28-.04v-.27l1.42-.08.04.04v3.23c0 .08 0 .16.04.23.03.08.07.12.15.12.04.04.12.04.16.04.04 0 .12.04.2.04v.32h.08Zm-.52-5.6c0 .16-.04.28-.15.39-.12.12-.24.16-.36.16s-.27-.04-.35-.16a.454.454 0 0 1-.16-.35c0-.16.04-.28.16-.39.12-.12.23-.16.35-.16.16 0 .28.04.4.16.07.07.11.19.11.35Z"/><path id="Path 130" class="shp0" d="M90.36 46.07c-.16.08-.35.12-.51.2-.16.04-.36.07-.59.07-.32 0-.55-.07-.71-.23-.12-.16-.2-.4-.2-.71v-2.68h-.71v-.39h.75V41.1h.75v1.23h1.14v.39h-1.14v2.64c0 .12.04.2.08.28.04.07.12.11.19.19.08.04.2.08.36.08h.31c.12 0 .24-.04.28-.04v.2Z"/><path id="Path 131" fill-rule="evenodd" class="shp0" d="M94.53 46.15c-.12.04-.24.08-.32.12-.07.04-.19.04-.31.04-.2 0-.39-.04-.51-.16-.12-.08-.2-.24-.24-.44h-.04c-.16.2-.35.36-.55.44-.2.12-.43.16-.71.16-.31 0-.55-.08-.74-.28-.2-.2-.28-.43-.28-.71 0-.16.04-.28.08-.39.04-.12.12-.24.2-.32.07-.08.15-.16.27-.2.12-.08.2-.11.32-.15.11-.04.35-.12.74-.24.36-.12.63-.24.75-.28v-.39c0-.04 0-.12-.04-.2 0-.12-.04-.19-.08-.27a.565.565 0 0 0-.23-.28c-.08-.08-.24-.12-.44-.12-.11 0-.23.04-.35.08-.12.04-.2.08-.24.12 0 .04 0 .12.04.24.04.11.04.19.04.27 0 .08-.04.2-.12.28-.07.08-.19.12-.35.12-.12 0-.24-.04-.31-.16-.08-.08-.08-.2-.08-.32s.04-.23.11-.35c.08-.12.2-.2.36-.32.12-.08.27-.15.43-.19.16-.04.36-.08.51-.08.24 0 .44 0 .59.04.16.04.32.08.48.19.11.12.23.24.31.4.08.16.12.39.12.67v2.01c0 .12 0 .19.04.23.04.08.08.12.16.16.03.04.11.04.19.04h.28v.24h-.08Zm-1.42-2.13c-.23.08-.43.12-.59.2-.16.08-.31.15-.47.23-.12.08-.24.2-.32.32-.07.12-.11.27-.11.43 0 .24.04.4.15.51.12.12.28.16.44.16.19 0 .35-.04.51-.16.16-.11.27-.19.35-.31l.04-1.38Z"/><path id="Path 132" class="shp0" d="M97.95 42.76c0 .12-.04.27-.12.35-.07.12-.15.16-.31.16s-.28-.04-.35-.12a.357.357 0 0 1-.12-.27v-.16c0-.04 0-.08.04-.16-.12 0-.28.04-.44.16-.15.12-.31.24-.43.43v2.33c0 .08 0 .15.04.23.04.08.08.12.16.12.08.04.16.04.27.08.12 0 .2.04.28.04v.28h-2.09v-.28h.2c.08 0 .12 0 .16-.04a.39.39 0 0 0 .15-.12c.04-.08.04-.16.04-.23v-2.45c0-.08 0-.15-.04-.23-.03-.08-.07-.16-.15-.2-.04-.04-.12-.04-.2-.08-.08 0-.16-.04-.24-.04v-.27l1.34-.08.04.04v.55h.04c.16-.24.36-.4.55-.51.2-.12.4-.16.55-.16.16 0 .32.04.44.16.15.11.19.27.19.47Z"/><path id="Path 133" class="shp0" d="M100.94 44.26c.12.07.2.19.24.35.04.16.08.28.08.47 0 .36-.16.67-.44.91-.27.24-.62.35-1.06.35-.23 0-.43-.03-.63-.11-.19-.08-.31-.16-.43-.24l-.08.28h-.31l-.04-1.38h.27c.04.11.08.23.12.35.04.12.16.28.24.4.12.11.23.23.39.31.16.08.32.12.51.12.28 0 .47-.04.59-.16.16-.12.2-.27.2-.51 0-.12-.04-.2-.08-.28a.46.46 0 0 0-.2-.19c-.08-.08-.19-.12-.31-.16-.12-.04-.28-.12-.43-.16-.12-.04-.28-.08-.44-.16-.15-.08-.27-.15-.39-.23-.12-.08-.2-.2-.28-.36-.07-.12-.11-.31-.11-.47 0-.32.11-.59.35-.83s.55-.35.98-.35c.16 0 .32.04.48.08.15.03.31.07.39.15l.08-.19h.27l.08 1.3h-.27c-.04-.28-.2-.52-.36-.71a.9.9 0 0 0-.67-.28c-.23 0-.39.04-.51.16s-.19.24-.19.39c0 .12.04.24.07.32.04.08.12.16.2.2.08.04.2.11.32.15.11.04.27.12.47.16.19.04.35.12.51.2.16-.04.27.04.39.12Z"/></g></g></svg>